<?xml version="1.0" standalone="no"?><!DOCTYPE svg PUBLIC "-//W3C//DTD SVG 1.1//EN" "http://www.w3.org/Graphics/SVG/1.1/DTD/svg11.dtd"><svg t="1742550229191" class="icon" viewBox="0 0 1024 1024" version="1.1" xmlns="http://www.w3.org/2000/svg" p-id="25751" xmlns:xlink="http://www.w3.org/1999/xlink" width="200" height="200"><path d="M948.796684 211.234973c25.059732-0.048238 50.143584 0 75.179197-0.024119 0.024119 257.085359 0.048238 514.170718-0.024119 771.256076-290.12851-0.024119-580.2329-0.024119-870.36141 0-10.226493 0.241191-20.790654-0.192953-30.197098-3.907292-19.632938-7.066893-33.211984-24.384398-32.970793-42.377237-0.048238-62.275485 0-124.55097-0.024119-186.826456 25.083852-12.807236 50.288298-25.445638 75.348031-38.276993 261.01677-0.168834 522.033541 0.192953 783.026192-0.168833 0.144715-166.542303 0.144715-333.108724 0.024119-499.675146" fill="#36687F" p-id="25752"></path><path d="M518.512154 204.867533c34.610891-4.389674 70.524213-2.170718 103.519125 9.623517 24.939137 8.99642 48.503486 24.480874 62.757867 47.273412 9.044658 14.254381 13.530808 31.2101 13.337856 48.069342-0.192953 15.387978 1.640098 31.644243-5.306199 45.970982-12.831355 27.471641-40.857735 44.644432-69.414736 51.928397 25.783305 5.257961 51.373657 16.208027 69.487093 35.865083 13.820237 14.471453 21.755417 34.393819 21.465988 54.436782-0.313548 19.439985 1.953646 39.434709-4.341436 58.223478-8.369324 26.820426-28.460524 48.6482-52.33842 62.830225-33.622009 20.235915-73.707933 27.254569-112.539665 26.217448-32.560769-0.940644-65.917467-6.60863-94.595063-22.792538-23.516111-12.903712-42.690786-33.646128-53.206708-58.344074-6.07801-13.723761-9.623516-28.484643-11.335972-43.36612 33.06727 0 66.086301 0 99.153571 0.024119 1.760693 14.254381 8.417562 28.243452 20.018843 36.998681 14.953835 11.553043 34.924439 13.675523 53.206708 12.156021 16.376861-1.423026 33.549651-8.369324 42.546071-22.816658 8.514038-12.95195 8.586395-29.039382 8.248729-43.993216 0.458263-13.796118-4.437912-28.219333-15.09855-37.360468-13.000188-11.36009-30.534765-15.460335-47.297531-16.955718-15.412097-0.964764-30.848314-0.241191-46.28453-0.578858-0.217072-23.588468-0.072357-47.152817-0.072357-70.717166 19.898248-0.651215 40.20652 1.85717 59.718862-3.207839 12.42133-3.304315 24.842661-10.58828 30.100621-22.840777 4.968532-10.419446 3.641982-22.21368 3.810816-33.380817-0.048238-10.32297-2.894291-21.248917-10.515922-28.629358-10.419446-10.419446-26.000377-13.193141-40.20652-12.855474-14.01319-0.144715-28.701715 4.244959-38.59054 14.54381-9.068777 8.99642-13.579047 21.634822-14.664406 34.176748-33.06727 0.241191-66.134539 0.048238-99.201809 0.096476 1.133597-30.100622 15.026192-59.067647 36.733371-79.761824 24.60147-23.467873 57.620501-36.299227 90.904843-40.833616" fill="#FFFFFF" p-id="25753"></path><path d="M1.181835 140.566045c54.870925-32.898436 109.621255-66.086301 164.468061-99.057095 0.048238 254.625212-0.168834 509.226305 0.096477 763.851517-25.059732 15.243264-50.264179 30.269455-75.348031 45.4886-30.14886 17.968721-59.984172 36.49218-90.325985 54.123234 0.289429-249.487846 0.048238-498.975692 0.144715-748.463539 0.361786-5.28208-1.205954-10.974185 0.964763-15.942717" fill="#7FC5DE" p-id="25754"></path><path d="M165.674015 41.50895c242.51743-0.072357 485.03486 0 727.55229-0.048238 14.929715-0.192953 29.714716 6.126248 40.061805 16.859243 9.719992 10.154136 15.556812 24.046731 15.436216 38.180516 0.120595 38.228754-0.024119 76.481628 0.072358 114.734502 0.120595 197.969474 0.120595 395.938949 0 593.908423-260.992651 0.458263-522.009422 0.024119-783.026192 0.217071-0.26531-254.625212-0.048238-509.226305-0.096477-763.851517m352.838139 163.358583c-33.284341 4.510269-66.303373 17.365743-90.856605 40.857736-21.707179 20.718297-35.599774 49.685321-36.733371 79.761824 33.06727-0.048238 66.158658 0.144715 99.201809-0.096477 1.085359-12.541926 5.595628-25.180328 14.664406-34.176748 9.888826-10.298851 24.577351-14.688525 38.59054-14.54381 14.206143-0.361786 29.787074 2.411909 40.20652 12.855474 7.621632 7.356322 10.467684 18.306388 10.515923 28.629358-0.144715 11.191257 1.157716 22.961372-3.810816 33.380818-5.257961 12.252497-17.703411 19.536461-30.100622 22.840776-19.512342 5.065008-39.820614 2.556623-59.718862 3.207839-0.024119 23.564349-0.144715 47.128698 0.072357 70.717166 15.436216 0.337667 30.872433-0.385905 46.28453 0.578858 16.762766 1.471264 34.297343 5.595628 47.297532 16.955719 10.636518 9.165253 15.556812 23.564349 15.098549 37.360467 0.361786 14.953835 0.26531 31.017147-8.248728 43.993216-9.020539 14.447334-26.16921 21.41775-42.546072 22.816658-18.282269 1.543622-38.228754-0.578858-53.206708-12.156021-11.601281-8.755229-18.282269-22.7443-20.018843-36.998681-33.06727-0.024119-66.086301-0.024119-99.153571-0.024119 1.688336 14.881477 5.257961 29.642359 11.335972 43.36612 10.515922 24.697946 29.690597 45.464481 53.206708 58.344074 28.677596 16.183908 62.010175 21.851894 94.595063 22.792538 38.831732 1.037121 78.917656-5.981534 112.539665-26.217448 23.853778-14.182024 43.969097-36.009798 52.338421-62.830224 6.270963-18.78877 4.027888-38.783493 4.341435-58.223479 0.289429-20.042962-7.621632-39.989448-21.465988-54.436781-18.113435-19.632938-43.727907-30.607123-69.487092-35.865084 28.557-7.308084 56.6075-24.456755 69.414735-51.928397 6.970416-14.326738 5.113247-30.583004 5.306199-45.970982 0.192953-16.859243-4.269079-33.814961-13.337855-48.069342-14.254381-22.792538-37.81873-38.276993-62.757867-47.273412-33.043151-11.818353-68.932353-14.037309-103.567364-9.647636" fill="#39A5CC" p-id="25755"></path></svg>