<?xml version="1.0" standalone="no"?><!DOCTYPE svg PUBLIC "-//W3C//DTD SVG 1.1//EN" "http://www.w3.org/Graphics/SVG/1.1/DTD/svg11.dtd"><svg t="1742549972427" class="icon" viewBox="0 0 1050 1024" version="1.1" xmlns="http://www.w3.org/2000/svg" p-id="6672" xmlns:xlink="http://www.w3.org/1999/xlink" width="205.078125" height="200"><path d="M0 0m185.982906 0l678.290598 0q185.982906 0 185.982906 185.982906l0 652.034188q0 185.982906-185.982906 185.982906l-678.290598 0q-185.982906 0-185.982906-185.982906l0-652.034188q0-185.982906 185.982906-185.982906Z" fill="#00005B" p-id="6673"></path><path d="M412.763897 612.649573H250.013538l-33.113709 103.060786A8.288274 8.288274 0 0 1 208.445265 722.051282H126.013265q-7.049846 0-4.931829-7.750017l140.909402-404.143043q2.113641-6.340923 4.227282-14.441025a130.17053 130.17053 0 0 0 3.439589-27.914941 4.36294 4.36294 0 0 1 4.931829-4.931829h112.022975q4.918701 0 5.636376 3.522735L551.559658 715.005812q2.113641 7.049846-4.227282 7.04547h-91.591111a6.51159 6.51159 0 0 1-7.04547-4.931829z m-137.386666-86.899966h111.318427q-4.227282-14.082188-9.863658-31.704616-5.645128-17.600547-11.977299-37.691076l-12.681846-40.15918q-6.340923-20.081778-11.627214-38.750085-5.281915-18.659556-9.509197-34.172718h-0.704547a568.166838 568.166838 0 0 1-14.795487 56.36376q-9.876786 31.704615-20.077401 64.818325-10.222496 33.126838-20.081778 61.29559zM887.628581 377.260855v268.261743q0 17.622427 0.350086 31.35453 0.350085 13.740855 1.409094 23.954598c0.704547 6.813538 1.29094 10.89641 1.763555 15.578804 0.463863 3.767795-1.177162 5.640752-4.931829 5.640752h-75.38653a8.270769 8.270769 0 0 1-8.454564-4.931829 106.141538 106.141538 0 0 1-2.463726-10.922667 46.342564 46.342564 0 0 1-1.059009-9.242256 125.741949 125.741949 0 0 1-49.31829 27.127248 190.617162 190.617162 0 0 1-48.61812 6.695384 145.30735 145.30735 0 0 1-47.550359-7.399931 92.77265 92.77265 0 0 1-37.340992-23.954599 112.867556 112.867556 0 0 1-24.659145-42.27282 193.365333 193.365333 0 0 1-8.809026-62.354598V377.965402a4.979966 4.979966 0 0 1 5.636377-5.636376h83.727316a4.988718 4.988718 0 0 1 5.636376 5.636376v205.55706q0 28.899556 12.681846 45.44547c8.45894 11.040821 25.47747 16.554667 45.204786 16.554666a79.942017 79.942017 0 0 0 29.590975-5.281914 111.559111 111.559111 0 0 0 27.761777-14.441026V377.260855c0-3.282051 2.113641-4.936205 6.340924-4.936205h83.556649a4.367316 4.367316 0 0 1 4.931829 4.936205z" fill="#9999FF" p-id="6674"></path></svg>