<?xml version="1.0" standalone="no"?><!DOCTYPE svg PUBLIC "-//W3C//DTD SVG 1.1//EN" "http://www.w3.org/Graphics/SVG/1.1/DTD/svg11.dtd"><svg t="1742550156268" class="icon" viewBox="0 0 1024 1024" version="1.1" xmlns="http://www.w3.org/2000/svg" p-id="24731" xmlns:xlink="http://www.w3.org/1999/xlink" width="200" height="200"><path d="M900.35 926.91h-646a62 62 0 0 1-62-62v-634h708v696z" fill="#78082A" p-id="24732"></path><path d="M248.52 103h534a62 62 0 0 1 62 62v518h-596V103z" fill="#E51050" p-id="24733"></path><path d="M248.52 682.99l-123.79 74.04V178.52l123.79-75.54v580.01z" fill="#E85984" p-id="24734"></path><path d="M441.87 861.18c-13.73 0-24.15-4.62-32.75-13.2-12.41-12.37-11.92-28.87-11.92-46.53s-0.49-34.15 11.92-46.53c8.6-8.58 19-13.2 32.75-13.2 22.33 0 40.36 12.38 44.66 38.28h-29.45c-1.82-6.6-5.46-12.54-15.05-12.54-5.29 0-9.26 2.15-11.41 4.95-2.65 3.47-4.47 7.59-4.47 29s1.82 25.58 4.47 29c2.15 2.81 6.12 5 11.41 5 9.59 0 13.23-5.94 15.05-12.54h29.45c-4.3 25.94-22.33 38.31-44.66 38.31zM565.93 860.19l-5.46-17.49h-36.22l-5.8 17.49h-30.27L531 742.71h22.33l42.87 117.48z m-23-72.93l-10.59 31.35h20.51zM683.54 848.64c-8.1 8.09-19.52 11.55-31.76 11.55h-43.67V742.71h43.67c12.24 0 23.66 3.47 31.76 11.55 13.73 13.7 12.24 28.71 12.24 47.19s1.49 33.55-12.24 47.19z m-19.85-73.59c-2.64-4-6.61-6.6-13.89-6.6h-12.74v66h12.74c7.28 0 11.25-2.64 13.89-6.6 2.32-3.3 3.14-6.43 3.14-26.4 0-19.8-0.83-23.1-3.14-26.4zM621.4 576.19h92.92l-105.15-371-3.45-9H487.3l-3.45 9-105.14 371h92.91l18.66-76h112.47z m-36-146.57h-77.8l38.92-158.49z" fill="#FFFFFF" p-id="24735"></path></svg>