<?xml version="1.0" standalone="no"?><!DOCTYPE svg PUBLIC "-//W3C//DTD SVG 1.1//EN" "http://www.w3.org/Graphics/SVG/1.1/DTD/svg11.dtd"><svg t="1742550253871" class="icon" viewBox="0 0 1365 1024" version="1.1" xmlns="http://www.w3.org/2000/svg" p-id="27826" xmlns:xlink="http://www.w3.org/1999/xlink" width="266.6015625" height="200"><path fill="#fff" d="M119.133843 0.204396h68.326763q159.429114-1.751968 257.539338 11.387794t181.620712 46.42716l38.543302 13.431757q7.007873 3.503937 7.007874 10.511809v45.551176q5.255905 47.303144 28.907476 67.450779t54.311017 21.899603q30.659445 1.751968 86.72243 17.519683t105.118097 50.80708q-45.551175-49.055112-113.877938-99.862192v-1.751968q-5.255905-3.503937-8.759842-7.007873l-3.503936-3.503937-2.627953-2.627952q-0.875984-0.875984-0.875984-2.627953t-1.751968-5.255905v-7.007873q1.751968-8.759841 10.51181-14.015746 5.255905-1.751968 10.511809-1.751968 3.503937 0 8.759842 1.751968t14.015746 7.007873q89.350382 54.311017 154.173209 138.405494 0 1.751968 2.627952 4.379921l4.379921 4.379921q3.503937 3.503937 5.255905 7.007873v1.751968h1.751968l3.503937 7.007873v1.751969q1.751968 3.503937 3.503936 5.255905 0 1.751968 0.875984 3.503936t2.627953 3.503937q8.759841 19.271651 17.519683 28.031492 7.007873 7.007873 1.751968 15.767715l3.503937 3.503936q21.023619 15.767715 42.047238 17.519683 8.759841 1.751968 9.635826 10.51181t-7.883857 12.263778q-3.503937 1.751968-9.635826 3.503936t-7.883857 1.751969q-1.751968 0-5.255905 2.627952t-6.131889 4.379921q-2.627952 1.751968-6.131889 6.131889t-7.007873 9.635825q-8.759841 10.51181-17.519683 0-17.519683-22.775588-43.799207-38.543302-5.255905-1.751968-22.775588-10.51181-19.271651-7.007873-23.651572-12.263778t-11.387793-28.031492q-1.751968-3.503937-5.255905-5.255905-7.007873-5.255905-35.039366-17.519683-70.078731-29.783461-94.606287-36.791334-22.775588-7.007873-54.311017-7.007873-50.80708 0-79.714557 29.783461t-31.535429 71.8307q-2.627952 42.047239 22.775588 73.582668t76.21062 36.791333q8.759841 0 35.039366 1.751969 3.503937 0 8.759841 0.875984t7.007873 0.875984h8.759842q57.814953 0 120.885811 14.015746 161.181082 33.287397 227.755877 124.389748 17.519683 22.775588 33.287397 59.566922 7.007873 17.519683 10.51181 29.783461 1.751968 7.007873 1.751968 12.263778 0 12.263778-7.007873 21.023619-3.503937 3.503937-9.635825 5.255905t-11.387794 0q-7.007873-1.751968-11.387794-7.007873t-7.883857-12.263778q-12.263778-36.791334-49.055112-75.334636t-78.838573-50.80708q56.062985 68.326763 80.590541 166.436987 8.759841 31.535429 10.51181 59.566921 1.751968 14.015746 1.751968 22.775588 0 7.007873-1.751968 10.51181-1.751968 5.255905-5.255905 8.759841-7.007873 7.007873-15.767715 7.007873-12.263778 0-19.271651-8.759841-1.751968-3.503937-3.503936-10.51181-3.503937-7.007873-3.503937-17.519683 0-5.255905-3.503936-21.023619-5.255905-17.519683-14.015747-38.543302-92.854319-229.507845-257.539337-222.499972-42.047239-1.751968-71.8307-7.007874-57.814953-8.759841-96.942245-49.055112t-51.39107-94.606287q-8.759841-50.80708 11.095799-100.738176t68.910753-84.970462l-12.263778-28.031492q-1.751968-1.751968-5.255905-10.51181-111.541981 5.255905-204.3963 32.411413t-210.236194 79.714557q-35.039366 17.519683-63.070858 29.783461-12.263778 5.255905-19.271651 8.759841-5.255905 1.751968-7.007873 3.503937h-14.015747q-5.255905-1.751968-9.635825-5.255905t-4.379921-10.51181q-1.751968-5.255905 0-10.511809t4.379921-8.759842q2.627952-3.503937 7.883857-8.759841 8.759841-7.007873 26.279524-17.519683 33.287397-21.023619 77.086605-42.047239 105.118097-52.559049 264.547211-94.606287H411.712547q-136.653526 7.007873-308.346418 28.031492-29.783461 3.503937-56.062985 7.007873-12.263778 1.751968-17.519683 1.751969H19.271651q-1.751968 0-3.503936-1.751969h-3.503937q-3.503937-1.751968-5.255905-5.255904-3.503937-3.503937-5.255905-8.759842-3.503937-7.007873 0-14.015746t10.51181-12.263778q5.255905-1.751968 17.519683-5.255905 14.015746-3.503937 70.078731-14.015746 147.165336-26.279524 404.704674-38.543303-147.165336-36.207345-371.417276-50.22309-33.287397-1.751968-36.791334-1.751969-7.007873-1.751968-10.51181-1.751968-1.751968 0-3.503937-1.751968h-3.503936l-5.255905-5.255905q-5.255905-7.007873-5.255905-14.89173t7.007873-13.139763q1.751968-1.751968 5.255905-3.503936l1.751968-1.751968h5.255905q5.255905-1.751968 31.535429-1.751969z" p-id="27827"></path></svg>